<svg width="1024" height="1024" viewBox="0 0 1024 1024" xmlns="http://www.w3.org/2000/svg">
  <defs>
    <linearGradient id="bg" x1="0" y1="0" x2="1" y2="1">
      <stop offset="0" stop-color="#14b8a6"/>
      <stop offset="1" stop-color="#134e4a"/>
    </linearGradient>
    <linearGradient id="sheen" x1="0" y1="0" x2="0" y2="1">
      <stop offset="0" stop-color="#ffffff" stop-opacity="0.16"/>
      <stop offset="1" stop-color="#ffffff" stop-opacity="0"/>
    </linearGradient>
  </defs>

  <!-- fundo -->
  <rect x="64" y="64" width="896" height="896" rx="200" fill="url(#bg)"/>
  <rect x="64" y="64" width="896" height="512" rx="200" fill="url(#sheen)"/>

  <!-- janela do terminal -->
  <rect x="192" y="240" width="640" height="480" rx="44" fill="#0b1220" opacity="0.92"/>
  <rect x="192" y="240" width="640" height="88" rx="44" fill="#111c2e"/>
  <rect x="192" y="284" width="640" height="44" fill="#111c2e"/>
  <circle cx="256" cy="284" r="16" fill="#f87171"/>
  <circle cx="308" cy="284" r="16" fill="#fbbf24"/>
  <circle cx="360" cy="284" r="16" fill="#34d399"/>

  <!-- prompt > _ -->
  <g stroke="#2dd4bf" stroke-width="34" stroke-linecap="round" fill="none">
    <path d="M 292 420 L 400 500 L 292 580"/>
  </g>
  <rect x="452" y="556" width="150" height="34" rx="12" fill="#e7edf5"/>

  <!-- linha de saída -->
  <rect x="292" y="636" width="300" height="22" rx="11" fill="#2dd4bf" opacity="0.5"/>

  <!-- easter egg da marca -->
  <text x="512" y="880" font-family="Segoe Script, cursive" font-size="88"
        fill="#ffffff" opacity="0.55" text-anchor="middle">Taylor</text>
</svg>
